<?xml version="1.0"?>
<svg xmlns="http://www.w3.org/2000/svg" xmlns:xlink="http://www.w3.org/1999/xlink" xmlns:svgjs="http://svgjs.com/svgjs" version="1.1" width="512" height="512" x="0" y="0" viewBox="0 0 140 140" style="enable-background:new 0 0 512 512" xml:space="preserve" class=""><g><circle xmlns="http://www.w3.org/2000/svg" cx="70" cy="70" fill="#ff9800" r="64" data-original="#ea8953" style="" class=""/><path xmlns="http://www.w3.org/2000/svg" d="m95.9907684 37.0273438-3.6699829 1.6600342c-1.4899902.6699829-2.5800171 2.0199585-2.9299927 3.5999756l-.4299927 1.960022-9.7800293-9.7800293-.1500244-.1499634c-1.039978-1.0599976-2.5699463-1.7800293-4.289978-1.9000244-.5499878-.0299683-1 .3699951-1.0299683.9000244-.0200195.289978.0799561.5499878.2699585.7399902l4.4200439 4.4199829c-.1700439.5100098-.5.9899902-.9700317 1.4000244l-7.0800171-7.0700073-.1199951-.1300049-.0100098-.0100098c-.1799927-.1699829-.4400024-.2700195-.7099609-.25-1.4400024.0900269-2.7999878.5999756-3.8400269 1.4500122-1.2099609.9799805-1.8999596 2.3599854-1.8999596 3.7999878 0 1.3400269.5999718 2.5800171 1.5999718 3.5100098-1.8099937 1.4099731-2.9699669 3.6199951-2.9699669 6.0999756v1.4299927l-8.8200073-8.8099976v-.0099487c-.460022-.5-1.0200195-.9100342-1.6600342-1.2000122l-3.6699829-1.6600342c-.6500244-.289978-1.4199829 0-1.7200317.6500244-.2299805.5100098-.0999756 1.0999756.2900391 1.4699707l.039978.0400391 5.9700317 5.9699707 3.0999756 13.9899902c.2299805 1.0200195.7399902 1.9100342 1.4400024 2.6000366l.0499878.0499878 4.4700317 4.460022c.039978.2099609.0899658.4199829.1599731.6199951v.0100098l-3.1199951.6399536c-2.7199707.5599976-5.2199707 1.7399902-7.2299805 3.4000244-1.5400391 1.2700195-4.0100098 2.8499756-7.0300293 3.1300049-.7099609.0700073-1.2299805.7000122-1.1699829 1.4199829.039978.3500366.210022.6600342.460022.8699951l10.2399902 10.2399902-1.8800049 8.4700317c-.1699829.789978-.7200317 1.4599609-1.460022 1.7999878l-3.6799927 1.6500244c-.6500244.2999878-.9400024 1.0700073-.6500244 1.7199707.0700073.1400146.1500244.2700195.2600098.3800049l32.6890831 32.6890869c29.6436157-4.4024048 52.6486206-29.1282349 54.4029541-59.5570679l-36.4020383-36.4020385c-.3699952-.3999634-.9699707-.539978-1.4899903-.3099975z" opacity=".1" fill="#000000" data-original="#000000" style="" class=""/><g xmlns="http://www.w3.org/2000/svg" fill="#2f4859"><path d="m78.4078445 79.8979263v-8.6547928c2.472702-1.4263229 4.0742493-3.6659927 4.0742493-6.1926956 0-2.9114761-2.121376-5.4459305-5.2596359-6.7872467 2.7159271-1.2118759 4.6118622-3.9308052 4.6118622-7.0969772v-3.8866043c0-4.2930412-3.4801636-7.7732086-7.7732086-7.7732086h-3.8866043c-4.2930374 0-7.7732086 3.4801674-7.7732086 7.7732086v3.8866043c0 3.166172 1.8959351 5.8851013 4.6118622 7.0969772-3.1382523 1.3413162-5.2596283 3.8757706-5.2596283 6.7872467 0 2.5267029 1.6015472 4.7662964 4.0741653 6.1926956v8.6548767c-3.1031456 2.0306778-5.157074 5.5314789-5.157074 9.5168457v6.6279144c0 6.2806244 5.0914459 11.3720703 11.3720703 11.3720703h.150238c6.2806244 0 11.3720627-5.0914459 11.3720627-11.3720703v-6.6279143c0-3.9853669-2.0540008-7.4862519-5.1571503-9.5169297z" fill="#2f4859" data-original="#2f4859" style="" class=""/><path d="m74.2119827 42.9353294h-4.1877136c-3.4507523 0-6.2581673-2.3658676-6.2581673-5.2732315 0-1.4309082.6939507-2.8150063 1.9034538-3.7980423 1.0380707-.8451347 2.3993912-1.3587952 3.8334656-1.4473572.5471878-.0328941.9963226.3744926 1.029213.910923.0328979.5351677-.3744888.9956894-.9102859 1.02985-1.0317459.0632591-2.0002365.4238319-2.7258148 1.0146675-.7546692.6123428-1.1867294 1.4473572-1.1867294 2.289959 0 1.835762 1.9357147 3.3299294 4.3148651 3.3299294h4.1877136c1.1766129 0 2.3171616-.3782845 3.1287689-1.0387039.7641678-.6224632 1.185463-1.4359703 1.185463-2.2912254 0-1.705452-1.7212601-3.156601-3.9182281-3.3058929-.5351715-.0354233-.9400253-.4997406-.9033356-1.0349083.0354233-.5351677.4877243-.9336967 1.0349121-.9033318 3.2128983.2176094 5.7299576 2.5214844 5.7299576 5.244133 0 1.4296417-.6933136 2.8137398-1.9021835 3.7980423-1.169655.9514083-2.716324 1.4751891-4.3553545 1.4751891z" fill="#2f4859" data-original="#2f4859" style="" class=""/><path d="m78.6647568 63.2046318h4.5862427c2.4493713 0 4.5299454-1.6700249 5.060051-4.0624619l3.6038361-16.2916069c.1758575-.7945251.7230453-1.467598 1.4644394-1.8016014l3.6746826-1.6561089c.652832-.2947845.9431915-1.0614777.6490326-1.7143059-.2941513-.6528282-1.0614777-.941288-1.7130356-.6490326l-3.6746902 1.6561089c-1.4827805.6680069-2.5784149 2.0166817-2.9307709 3.6057358l-3.6038362 16.2916031c-.2606277 1.176609-1.3246384 2.0306015-2.5297089 2.0306015h-4.5862427c-.7154541 0-1.2955399.5794449-1.2955399 1.2955322s.5800859 1.2955361 1.29554 1.2955361z" fill="#2f4859" data-original="#2f4859" style="" class=""/><path d="m47.1816101 39.3928528 3.6746902 1.6561089c.7413902.3340034 1.2885742 1.0070763 1.4644356 1.8016014l3.6038399 16.2916069c.5301056 2.392437 2.6106796 4.0624619 5.0600471 4.0624619h4.5862465c.7154541 0 1.2955322-.5794487 1.2955322-1.295536s-.5800781-1.2955322-1.2955322-1.2955322h-4.5862464c-1.2050743 0-2.2690811-.8539925-2.5297089-2.0306015l-3.6038361-16.2916033c-.3523521-1.5890541-1.4479904-2.9377289-2.9307709-3.6057358l-3.6746864-1.6561089c-.6509323-.2922554-1.4195213-.002533-1.7130432.6490326-.2941513.6528283-.0037956 1.4195214.6490326 1.714306z" fill="#2f4859" data-original="#2f4859" style="" class=""/><path d="m96.6634979 98.5104904-3.6734238-1.6548462c-.7420197-.3352661-1.2904739-1.0096054-1.4656982-1.8028641l-3.6038437-16.2916107c-.5294724-2.3924332-2.6106796-4.0624619-5.060051-4.0624619h-4.5862427c-.7154541 0-1.2955322.5794525-1.2955322 1.2955399 0 .7160797.5800781 1.2955322 1.2955322 1.2955322h4.5862427c1.2246857 0 2.2652893.8350143 2.5297089 2.0306015l3.6038437 16.2916031c.3517151 1.5877838 1.4467239 2.9351959 2.9307632 3.6057358l3.6746902 1.656105c.172699.077179.3529816.1138687.5313721.1138687.4940491 0 .9659576-.2834015 1.1816711-.7629013.2941514-.6528243.0037919-1.4195174-.6490325-1.714302z" fill="#2f4859" data-original="#2f4859" style="" class=""/><path d="m66.1708679 74.6987076h-4.5862427c-2.4493713 0-4.5305786 1.6700287-5.060051 4.0624619l-3.6038399 16.2916107c-.1752243.7932587-.7236786 1.467598-1.4644356 1.8015976l-3.6746864 1.6561127c-.6528282.2947845-.9431877 1.0614777-.6490326 1.7143021.2163429.4794998.6876183.7629013 1.1816673.7629013.1777573 0 .3586769-.0366898.5313721-.1138687l3.6759529-1.6573715c1.4827805-.6692734 2.5777855-2.0166855 2.9295044-3.6044693l3.6038399-16.2916031c.2644196-1.1955872 1.3050232-2.0306015 2.5297089-2.0306015h4.5862427c.7154541 0 1.2955322-.5794525 1.2955322-1.2955322 0-.7160875-.5800781-1.29554-1.2955322-1.29554z" fill="#2f4859" data-original="#2f4859" style="" class=""/><path d="m99.564743 74.0610657c-3.0205917-.282135-5.4902115-1.8623352-7.0305557-3.1376266-2.0046616-1.6599045-4.5021057-2.8339844-7.2215958-3.3969803l-6.5757217-1.3613281c-.6983719-.1391678-1.385994.3061752-1.5308609 1.0058136-.1454926.7009048.3049088 1.3866272 1.0058136 1.5321198l6.5757294 1.3613205c2.3070374.4769745 4.4141769 1.4638062 6.0943222 2.8554916 1.8205795 1.5068207 4.7627411 3.3767471 8.4412231 3.7221375.0411148.0037918.081604.0050583.1220856.0050583.6610565 0 1.2259521-.50354 1.2885818-1.1740799.0670472-.7135545-.456726-1.3448717-1.1690216-1.4119264z" fill="#2f4859" data-original="#2f4859" style="" class=""/><path d="m65.4987564 66.1651306-6.5757294 1.3613281c-2.7194824.5629959-5.2169304 1.7370758-7.2215919 3.3969803-1.5403481 1.2752914-4.0099602 2.8554916-7.0305557 3.1376266-.7122917.0670547-1.2360725.6983719-1.1690178 1.4119263.0626259.6705399.6275253 1.1740799 1.288578 1.1740799.0404854 0 .0809708-.0012665.1220894-.0050583 3.6784821-.3453903 6.620636-2.2153168 8.4412193-3.7221375 1.6801453-1.3916855 3.7872887-2.3785172 6.094326-2.8554916l6.5757294-1.3613205c.7008972-.1454926 1.1512985-.8312149 1.005806-1.5321198-.1448593-.6996383-.8305817-1.1487731-1.5308533-1.0058135z" fill="#2f4859" data-original="#2f4859" style="" class=""/></g></g></svg>
