<svg id="Capa_1" enable-background="new 0 0 512 512" height="512" viewBox="0 0 512 512" width="512" xmlns="http://www.w3.org/2000/svg"><g><path d="m75 90h-60c-8.291 0-15-6.709-15-15s6.709-15 15-15h60c8.291 0 16 6.709 16 15s-7.709 15-16 15z" fill="#28487a"/><path d="m376 331c-8.291 0-15-6.709-15-15v-61c0-24.814 20.186-45 45-45h61c8.276 0 15-6.724 15-15s-6.724-15-15-15h-151c-24.814 0-45-20.186-45-45v-29.648c0-8.291 6.709-15 15-15s15 6.709 15 15v29.648c0 8.276 6.724 15 15 15h151c24.814 0 45 20.186 45 45s-20.186 45-45 45h-61c-8.276 0-15 6.724-15 15v61c0 8.291-6.709 15-15 15z" fill="#1f2859"/><path d="m166 90h-45v90h45 45v-90z" fill="#dfe7f4"/><path d="m166 90h45v90h-45z" fill="#c7cfe1"/><path d="m316 30h-150-91c-8.291 0-15 6.709-15 15v60c0 8.291 6.709 15 15 15h91 150c8.291 0 15-6.709 15-15v-60c0-8.291-6.709-15-15-15z" fill="#f0f7ff"/><path d="m331 105v-60c0-8.291-6.709-15-15-15h-150v90h150c8.291 0 15-6.709 15-15z" fill="#dfe7f4"/><circle cx="166" cy="45" fill="#28487a" r="45"/><path d="m211 45c0-24.814-20.186-45-45-45v90c24.814 0 45-20.186 45-45z" fill="#1f2859"/><path d="m376 301c-45.791 0-75 68.95-75 105 0 37.809 26.238 44.89 60.353 45h29.705c34.163 0 59.941-7.687 59.941-45 .001-36.05-29.208-105-74.999-105z" fill="#dfe7f4"/><circle cx="375.999" cy="375.999" fill="#c7cfe1" r="15"/><path d="m15 120c-8.291 0-15-6.709-15-15v-60c0-8.291 6.709-15 15-15s15 6.709 15 15v60c0 8.291-6.709 15-15 15z" fill="#4e6ba6"/><circle cx="166" cy="45" fill="#f0f7ff" r="15"/><path d="m181 45c0-8.284-6.716-15-15-15v30c8.284 0 15-6.716 15-15z" fill="#dfe7f4"/></g><path d="m196 150h-30-30c-36.216 0-66.513 25.809-73.482 60-.989 4.849-1.518 9.864-1.518 15l105 19 105-19c0-5.136-.529-10.151-1.518-15-6.969-34.191-37.266-60-73.482-60z" fill="#f0f7ff"/><path d="m271 225c0-5.136-.529-10.151-1.518-15-6.969-34.191-37.266-60-73.482-60h-30v94z" fill="#dfe7f4"/><path d="m61 497c0 8.291 6.709 15 15 15h90 90c8.291 0 15-6.709 15-15v-272h-210z" fill="#52d9c0"/><path d="m271 497v-272h-105v287h90c8.291 0 15-6.709 15-15z" fill="#24b398"/></svg>